<?xml version="1.0" encoding="utf-8"?>
<!-- Generator: Adobe Illustrator 16.0.0, SVG Export Plug-In . SVG Version: 6.00 Build 0)  -->
<!DOCTYPE svg PUBLIC "-//W3C//DTD SVG 1.1//EN" "http://www.w3.org/Graphics/SVG/1.1/DTD/svg11.dtd">
<svg version="1.1" xmlns="http://www.w3.org/2000/svg" xmlns:xlink="http://www.w3.org/1999/xlink" x="0px" y="0px" width="80px"
	 height="30px" viewBox="0 0 80 30" enable-background="new 0 0 80 30" xml:space="preserve">
<g id="Layer_1">
	<g>
		<g>
			<path fill="#FFFFFF" d="M0,0.781V0.483h8.091c0.595,0,1.094,0.007,1.497,0.019c0.403,0.013,0.704,0.037,0.902,0.075
				c0.434,0.036,0.88,0.18,1.339,0.427c1.004,0.484,1.506,1.364,1.506,2.642c0,0.881-0.273,1.565-0.818,2.056
				c-0.546,0.49-1.432,0.847-2.66,1.069c1.228,0.111,2.133,0.397,2.716,0.855c0.843,0.67,1.265,1.581,1.265,2.734
				c0,1.104-0.422,1.984-1.265,2.642c-0.483,0.396-0.974,0.651-1.469,0.763c-0.223,0.037-0.577,0.068-1.06,0.093
				c-0.484,0.024-1.11,0.037-1.879,0.037H0v-0.279c1.228-0.223,1.841-1.115,1.841-2.678V3.44V3.199c0-0.533-0.021-0.899-0.065-1.098
				s-0.177-0.421-0.4-0.67C1.066,1.072,0.607,0.855,0,0.781z M5.748,0.967v5.562h1.042c1.575,0,2.362-0.923,2.362-2.771
				c0-1.859-0.738-2.79-2.213-2.79H5.748z M6.752,6.863H5.748v4.558c0,0.657,0.093,1.135,0.279,1.433
				c0.31,0.458,0.731,0.688,1.265,0.688c0.645,0,1.203-0.335,1.674-1.004c0.471-0.67,0.707-1.451,0.707-2.344
				c0-1.005-0.273-1.805-0.818-2.399C8.333,7.174,7.632,6.863,6.752,6.863z"/>
			<path fill="#FFFFFF" d="M19.717,8.296c0.372-0.148,0.558-0.267,0.558-0.354V7.626V7.087V6.976c0-0.472-0.019-0.801-0.056-0.986
				c-0.1-0.359-0.322-0.539-0.669-0.539c-0.298,0-0.562,0.117-0.791,0.353c-0.23,0.236-0.344,0.516-0.344,0.838l-0.019,0.502
				c0,0.322-0.149,0.613-0.446,0.874c-0.298,0.235-0.639,0.354-1.023,0.354c-0.372,0-0.688-0.111-0.949-0.335
				c-0.236-0.235-0.354-0.539-0.354-0.911c0-1.401,1.581-2.103,4.743-2.103c1.116,0,1.897,0.202,2.344,0.605
				s0.669,1.113,0.669,2.129v4.297c0,0.323,0.019,0.577,0.056,0.763c0.099,0.248,0.329,0.372,0.688,0.372
				c0.26,0,0.452-0.062,0.577-0.186l0.372-0.559l0.242,0.112c-0.372,1.041-1.314,1.563-2.828,1.563
				c-0.322,0-0.626-0.025-0.911-0.074c-0.285-0.05-0.505-0.146-0.661-0.289c-0.155-0.143-0.307-0.4-0.456-0.771l-0.446,0.502
				c-0.459,0.435-1.153,0.65-2.083,0.65c-0.88,0-1.575-0.213-2.083-0.641c-0.508-0.429-0.763-1.015-0.763-1.758
				c0-0.607,0.161-1.092,0.483-1.451c0.323-0.359,0.899-0.713,1.73-1.061L19.717,8.296z M20.145,8.668
				c-1.24,0.285-1.86,1.283-1.86,2.994c0,1.166,0.322,1.749,0.967,1.749c0.26,0,0.475-0.124,0.642-0.372s0.251-0.57,0.251-0.967
				V8.668z"/>
			<path fill="#FFFFFF" d="M24.962,13.895v-0.241c0.545,0,0.942-0.193,1.19-0.577l0.205-0.428c0.062-0.248,0.093-0.651,0.093-1.209
				v-3.46l-0.038-0.818c0-0.657-0.111-1.054-0.334-1.19l-0.149-0.074l-0.205-0.148c-0.049-0.05-0.304-0.075-0.762-0.075v-0.26
				l4.873-0.446l-0.205,1.45c0.285-0.545,0.614-0.93,0.986-1.153c0.372-0.224,0.8-0.335,1.284-0.335
				c0.495,0,0.886,0.125,1.171,0.372c0.297,0.224,0.446,0.54,0.446,0.949c0,0.396-0.118,0.71-0.353,0.939
				c-0.236,0.229-0.564,0.344-0.986,0.344c-0.632,0-1.098-0.298-1.395-0.893c-0.124-0.261-0.279-0.397-0.465-0.409
				c-0.224,0-0.354,0.161-0.391,0.483l-0.037,0.576l-0.019,0.893l0.019,3.962c0,0.397,0.084,0.717,0.251,0.958
				c0.167,0.242,0.504,0.425,1.013,0.55v0.241H24.962z"/>
			<path fill="#FFFFFF" d="M42.874,8.835h-5.766v0.502c0,0.286,0.009,0.496,0.028,0.633c0.019,0.137,0.059,0.385,0.121,0.744
				c0.297,1.674,1.122,2.511,2.474,2.511c1.277,0,2.127-0.793,2.549-2.381l0.334,0.056c-0.26,1.116-0.734,1.935-1.422,2.455
				c-0.688,0.521-1.64,0.781-2.855,0.781c-1.513,0-2.704-0.39-3.571-1.171c-0.868-0.781-1.302-1.879-1.302-3.293
				c0-1.413,0.45-2.545,1.349-3.395c0.898-0.849,2.104-1.273,3.618-1.273c1.488,0,2.647,0.415,3.479,1.246
				c0.31,0.334,0.539,0.682,0.688,1.041c0.074,0.212,0.14,0.44,0.194,0.688C42.846,8.228,42.874,8.513,42.874,8.835z M38.465,5.395
				c-0.893,0-1.339,1.004-1.339,3.013h2.12c0.236,0,0.354-0.173,0.354-0.521V7.198c0-0.496-0.108-0.921-0.325-1.273
				C39.057,5.571,38.788,5.395,38.465,5.395z"/>
			<path fill="#FFFFFF" d="M43.487,13.895v-0.241c0.359-0.05,0.689-0.242,0.985-0.577c0.225-0.322,0.336-0.868,0.336-1.637V5.896
				h-1.321V5.301h1.321v-2.25c0-0.646,0.104-1.15,0.316-1.516c0.21-0.366,0.602-0.698,1.171-0.996C47.015,0.18,47.822,0,48.714,0
				c0.941,0,1.676,0.14,2.204,0.419c0.526,0.278,0.79,0.666,0.79,1.162c0,0.335-0.127,0.62-0.381,0.855
				c-0.255,0.235-0.586,0.354-0.995,0.354c-0.893,0-1.34-0.422-1.34-1.265l0.019-0.372l0.019-0.242c0-0.285-0.11-0.428-0.334-0.428
				c-0.075,0-0.161,0.044-0.261,0.13l-0.093,0.149L48.23,1.098v4.203h1.749v0.596H48.23v6.249c0,0.373,0.096,0.688,0.289,0.949
				c0.192,0.26,0.579,0.44,1.162,0.539v0.261H43.487z"/>
			<path fill="#FFFFFF" d="M50.407,9.579c0-0.868,0.215-1.665,0.642-2.39c0.428-0.726,0.99-1.249,1.684-1.572
				c0.905-0.396,1.848-0.596,2.828-0.596c1.078,0,2.032,0.199,2.863,0.596c0.658,0.311,1.206,0.834,1.646,1.572
				c0.44,0.737,0.661,1.521,0.661,2.353c0,0.843-0.212,1.624-0.632,2.344c-0.423,0.72-0.98,1.24-1.676,1.563
				c-0.421,0.198-0.864,0.347-1.33,0.446c-0.464,0.1-0.976,0.149-1.533,0.149c-1.018,0-1.96-0.199-2.828-0.596
				c-0.682-0.298-1.239-0.813-1.674-1.544C50.625,11.173,50.407,10.397,50.407,9.579z M54.239,6.733
				c-0.162,0.744-0.242,1.692-0.242,2.846s0.087,2.111,0.261,2.874c0.173,0.763,0.639,1.144,1.395,1.144
				c0.633,0,1.042-0.409,1.228-1.228c0.187-0.818,0.279-1.761,0.279-2.827c0-0.57-0.018-1.075-0.056-1.516
				c-0.037-0.44-0.105-0.871-0.204-1.293c-0.187-0.844-0.651-1.265-1.396-1.265C54.884,5.469,54.461,5.89,54.239,6.733z"/>
			<path fill="#FFFFFF" d="M61.902,9.579c0-0.868,0.214-1.665,0.642-2.39c0.428-0.726,0.988-1.249,1.684-1.572
				c0.905-0.396,1.848-0.596,2.826-0.596c1.08,0,2.035,0.199,2.866,0.596c0.656,0.311,1.205,0.834,1.646,1.572
				c0.439,0.737,0.66,1.521,0.66,2.353c0,0.843-0.211,1.624-0.633,2.344c-0.421,0.72-0.98,1.24-1.673,1.563
				c-0.423,0.198-0.865,0.347-1.33,0.446c-0.466,0.1-0.978,0.149-1.536,0.149c-1.017,0-1.958-0.199-2.826-0.596
				c-0.683-0.298-1.24-0.813-1.674-1.544C62.119,11.173,61.902,10.397,61.902,9.579z M65.734,6.733
				c-0.161,0.744-0.242,1.692-0.242,2.846s0.087,2.111,0.261,2.874s0.638,1.144,1.396,1.144c0.632,0,1.041-0.409,1.228-1.228
				c0.186-0.818,0.278-1.761,0.278-2.827c0-0.57-0.02-1.075-0.056-1.516c-0.037-0.44-0.105-0.871-0.205-1.293
				c-0.186-0.844-0.65-1.265-1.395-1.265C66.377,5.469,65.957,5.89,65.734,6.733z"/>
			<path fill="#FFFFFF" d="M73.061,5.878V5.562c0.98-0.261,1.83-0.694,2.55-1.302c0.545-0.447,1.159-1.061,1.84-1.842h0.168
				l-0.056,2.883h1.953v0.596h-1.897v6.082c0,0.657,0.323,0.986,0.968,0.986l0.409-0.075c0.235-0.086,0.49-0.353,0.764-0.8
				L80,12.146c-0.248,0.708-0.607,1.209-1.079,1.508c-0.472,0.272-1.172,0.409-2.103,0.409c-0.892,0-1.58-0.187-2.064-0.559
				c-0.223-0.186-0.369-0.388-0.437-0.604c-0.068-0.217-0.103-0.653-0.103-1.312v-5.71H73.061z"/>
		</g>
		<g>
			<path fill="#FFFFFF" d="M60.449,19.245c0-0.508-0.217-0.904-0.648-1.191c-0.433-0.284-1.198-0.428-2.3-0.428
				c-1.134,0-2.421,0.221-3.862,0.664c-1.441,0.441-2.788,1.003-4.041,1.684s-2.308,1.485-3.166,2.413
				c-0.858,0.929-1.289,1.831-1.289,2.705c0,0.929,0.346,1.393,1.037,1.393c0.8,0,1.587-0.301,2.365-0.906
				c0.777-0.604,1.42-1.432,1.927-2.479c0.064-0.14,0.119-0.21,0.163-0.21c0.064,0,0.096,0.043,0.096,0.13
				c0,0.086-0.021,0.178-0.064,0.274c-0.411,1.09-0.998,1.954-1.765,2.592c-0.768,0.638-1.582,0.955-2.446,0.955
				c-0.594,0-1.166-0.218-1.717-0.655c-0.55-0.438-0.826-0.926-0.826-1.466c0-0.982,0.445-1.938,1.337-2.867
				c0.891-0.929,2.011-1.715,3.36-2.356c1.35-0.643,2.823-1.158,4.421-1.546c1.599-0.389,3.105-0.584,4.52-0.584
				c1.241,0,2.225,0.243,2.948,0.729c0.723,0.484,1.085,1.106,1.085,1.861c0,0.886-0.58,1.845-1.741,2.876s-2.454,1.859-3.879,2.486
				c0.528,0.377,0.944,0.851,1.247,1.417s0.454,1.146,0.454,1.741c0,0.096-0.106,0.247-0.316,0.453
				c-0.21,0.205-0.37,0.308-0.478,0.308c-0.076,0-0.113-0.069-0.113-0.211c0-1.511-0.422-2.666-1.264-3.466
				c-0.842,0.346-1.562,0.519-2.154,0.519c-0.303,0-0.569-0.081-0.802-0.242c-0.232-0.163-0.349-0.379-0.349-0.648
				c0-0.184,0.133-0.338,0.397-0.462c0.264-0.123,0.553-0.187,0.867-0.187c0.518,0,1.003,0.087,1.457,0.26
				c1.328-0.594,2.583-1.463,3.765-2.608C59.857,21.048,60.449,20.065,60.449,19.245z M49.37,29.32c0-0.843,0.449-2.177,1.345-4.001
				c0.896-1.825,1.86-3.473,2.892-4.939c1.03-1.47,1.724-2.204,2.081-2.204c0.151,0,0.326,0.125,0.526,0.373s0.299,0.433,0.299,0.55
				c0,0.087-0.069,0.168-0.21,0.244c-0.583,0.346-1.36,1.171-2.332,2.478s-1.85,2.745-2.632,4.315
				c-0.783,1.571-1.174,2.8-1.174,3.685c0,0.12-0.055,0.18-0.163,0.18c-0.064,0-0.187-0.079-0.363-0.235
				C49.459,29.608,49.37,29.459,49.37,29.32z M53.468,24.735c-0.249,0-0.468,0.041-0.656,0.122s-0.283,0.175-0.283,0.283
				c0,0.107,0.161,0.162,0.485,0.162c0.443,0,0.961-0.119,1.556-0.356C54.277,24.807,53.91,24.735,53.468,24.735z"/>
			<path fill="#FFFFFF" d="M63.299,26.209c-0.26,0.228-0.462,0.4-0.608,0.519c-0.145,0.12-0.398,0.262-0.76,0.43
				c-0.362,0.167-0.727,0.257-1.094,0.268c-0.476,0.377-0.858,0.566-1.15,0.566c-0.237,0-0.486-0.105-0.745-0.315
				c-0.26-0.211-0.389-0.482-0.389-0.818c0-0.291,0.06-0.588,0.179-0.89c0-0.013-0.002-0.028-0.008-0.05s-0.008-0.043-0.008-0.064
				c0-0.627,0.271-1.177,0.816-1.652c0.546-0.475,1.072-0.713,1.579-0.713c0.367,0,0.678,0.105,0.933,0.316
				c0.253,0.21,0.38,0.488,0.38,0.834c0,0.896-0.454,1.755-1.36,2.576c0.733-0.044,1.479-0.444,2.235-1.199l0.032-0.032
				c0.021-0.022,0.043-0.033,0.064-0.033c0.055,0,0.081,0.022,0.081,0.065C63.477,26.026,63.417,26.091,63.299,26.209z
				 M59.865,24.461c0.357-0.335,0.643-0.503,0.858-0.503c0.099,0,0.222,0.104,0.373,0.309c0.151,0.204,0.228,0.355,0.228,0.453
				c0,0.075-0.07,0.146-0.212,0.211c-0.334,0.184-0.68,0.447-1.036,0.793s-0.615,0.68-0.776,1.004
				c0.28,0.314,0.695,0.487,1.246,0.519c0.367-0.324,0.675-0.723,0.924-1.198c0.248-0.476,0.371-0.96,0.371-1.457
				c0-0.552-0.29-0.827-0.873-0.827c-0.346,0-0.711,0.154-1.094,0.462c-0.384,0.308-0.639,0.65-0.769,1.028
				C59.352,24.952,59.606,24.687,59.865,24.461z M59.169,26.938c-0.033,0.087-0.049,0.194-0.049,0.324
				c0,0.323,0.135,0.486,0.404,0.486c0.205,0,0.476-0.108,0.811-0.324C59.86,27.349,59.471,27.187,59.169,26.938z"/>
			<path fill="#FFFFFF" d="M64.53,23.942c0.151,0,0.327,0.11,0.526,0.332c0.2,0.222,0.301,0.434,0.301,0.641
				c0,0.096-0.293,0.561-0.875,1.392c-0.584,0.831-0.875,1.366-0.875,1.604c0,0.055,0.021,0.081,0.064,0.081
				c0.227,0,0.813-0.483,1.758-1.449c0.944-0.967,1.504-1.45,1.677-1.45c0.14,0,0.279,0.095,0.421,0.284
				c0.14,0.188,0.21,0.354,0.21,0.493c0,0.064-0.094,0.287-0.283,0.664c-0.189,0.379-0.283,0.61-0.283,0.697
				c0,0.075,0.037,0.112,0.113,0.112c0.367,0,0.848-0.221,1.441-0.663c0.227-0.162,0.491-0.384,0.793-0.664l0.033-0.032
				c0.021-0.022,0.049-0.033,0.081-0.033c0.043,0,0.064,0.022,0.064,0.065c0,0.011-0.06,0.075-0.179,0.193
				c-0.389,0.357-0.686,0.604-0.891,0.746c-0.669,0.497-1.209,0.744-1.619,0.744c-0.216,0-0.416-0.062-0.599-0.187
				c-0.186-0.123-0.275-0.314-0.275-0.574c0-0.162,0.021-0.319,0.063-0.471c0.044-0.149,0.065-0.259,0.065-0.322
				c0-0.033-0.021-0.049-0.065-0.049l-1.134,1.149c-0.755,0.767-1.229,1.15-1.424,1.15s-0.414-0.1-0.656-0.3
				c-0.243-0.2-0.365-0.435-0.365-0.705c0-0.313,0.136-0.703,0.404-1.174c0.271-0.471,0.552-0.909,0.843-1.32
				c0.292-0.41,0.454-0.669,0.486-0.777C64.384,24.001,64.443,23.942,64.53,23.942z"/>
			<path fill="#FFFFFF" d="M72.806,21.772h0.259c0.238,0,0.502,0.016,0.794,0.048s0.532,0.067,0.721,0.104
				c0.188,0.039,0.283,0.068,0.283,0.09c0,0.098-0.026,0.146-0.081,0.146l-0.08-0.017c-0.056-0.011-0.128-0.021-0.219-0.032
				c-0.092-0.012-0.198-0.022-0.315-0.033c-0.12-0.011-0.258-0.021-0.414-0.032c-0.155-0.011-0.314-0.016-0.478-0.016
				c-0.194,0-0.367,0.01-0.519,0.031l-0.178,0.033c-0.551,0.767-1.015,1.437-1.393,2.008c-0.378,0.573-0.762,1.286-1.15,2.139
				s-0.583,1.56-0.583,2.121c0,0.346,0.057,0.592,0.17,0.736c0.113,0.146,0.3,0.221,0.559,0.221c0.054,0,0.101,0.023,0.138,0.072
				c0.038,0.048,0.057,0.089,0.057,0.122c0,0.053-0.07,0.08-0.21,0.08c-0.281,0-0.56-0.144-0.835-0.43
				c-0.274-0.286-0.412-0.678-0.412-1.174c0-0.69,0.2-1.495,0.599-2.413c0.399-0.918,0.939-1.976,1.62-3.175
				c-0.151,0.032-0.292,0.07-0.422,0.113s-0.221,0.078-0.274,0.105c-0.055,0.027-0.087,0.041-0.098,0.041
				c-0.087,0-0.173-0.055-0.259-0.162c-0.087-0.108-0.129-0.194-0.129-0.26c0-0.075,0.031-0.118,0.096-0.129
				c0.249-0.108,0.713-0.201,1.393-0.275c0.043-0.075,0.106-0.187,0.187-0.332c0.082-0.146,0.144-0.253,0.187-0.324
				c0.044-0.07,0.098-0.165,0.162-0.283c0.065-0.119,0.113-0.208,0.146-0.268c0.031-0.06,0.073-0.139,0.121-0.234
				c0.048-0.098,0.083-0.173,0.104-0.228c0.022-0.054,0.044-0.112,0.065-0.178c0.021-0.064,0.037-0.124,0.049-0.179
				c0.01-0.054,0.016-0.102,0.016-0.145c0-0.151,0.071-0.229,0.21-0.229c0.151,0,0.324,0.146,0.519,0.438
				c0.194,0.291,0.293,0.551,0.293,0.777C73.503,20.763,73.27,21.135,72.806,21.772z"/>
			<path fill="#FFFFFF" d="M72.45,27.959c-0.421,0-0.755-0.122-1.005-0.364c-0.247-0.243-0.372-0.574-0.372-0.997
				c0-0.69,0.273-1.36,0.818-2.007c0.545-0.648,1.034-0.973,1.465-0.973c0.216,0,0.395,0.095,0.535,0.283
				c0.141,0.189,0.211,0.349,0.211,0.478c0,0.195-0.192,0.467-0.575,0.818s-0.818,0.678-1.304,0.98
				c-0.033,0.075-0.05,0.259-0.05,0.55c0,0.249,0.058,0.453,0.171,0.615c0.114,0.162,0.262,0.243,0.446,0.243
				c0.053,0,0.11-0.01,0.169-0.031c0.06-0.022,0.114-0.044,0.163-0.065c0.048-0.021,0.107-0.059,0.178-0.113
				c0.069-0.054,0.12-0.095,0.154-0.122c0.031-0.026,0.082-0.073,0.153-0.138c0.07-0.064,0.115-0.108,0.137-0.13
				c0.087-0.086,0.142-0.129,0.163-0.129c0.065,0,0.097,0.033,0.097,0.098c0,0.065-0.053,0.151-0.161,0.26
				c-0.163,0.161-0.287,0.28-0.373,0.355c-0.087,0.075-0.226,0.159-0.421,0.251C72.855,27.913,72.655,27.959,72.45,27.959z
				 M72.223,25.918c0.367-0.259,0.705-0.542,1.012-0.851c0.308-0.308,0.462-0.532,0.462-0.671c0-0.077-0.032-0.114-0.097-0.114
				c-0.151,0-0.362,0.146-0.632,0.438C72.698,25.011,72.45,25.41,72.223,25.918z"/>
		</g>
	</g>
</g>
<g id="Layer_2" display="none">
	<g display="inline">
		<text transform="matrix(1 0 0 1 -15.8306 -5.271)"><tspan x="0" y="0" font-family="'BaskervilleSerialBlack'" font-size="18.497">Ba</tspan><tspan x="24.767" y="0" font-family="'BaskervilleSerialBlack'" font-size="18.497">r</tspan><tspan x="32.684" y="0" font-family="'BaskervilleSerialBlack'" font-size="18.497">e</tspan><tspan x="43.097" y="0" font-family="'BaskervilleSerialBlack'" font-size="18.497">f</tspan><tspan x="49.535" y="0" font-family="'BaskervilleSerialBlack'" font-size="18.497">oot</tspan></text>
		<text transform="matrix(1 0 0 1 27.9658 8.6504)"><tspan x="0" y="0" font-family="'AlFresco-Bold'" font-size="16.1064">R</tspan><tspan x="14.689" y="0" font-family="'AlFresco-Bold'" font-size="16.1064">oute</tspan></text>
	</g>
</g>
</svg>
